Coordinates
version=1
nRows=22
nColumns=24
inDegrees=yes

Units are S.I. units (second, meters, Newtons, ...)
Angles are in degrees.

endheader
time	pelvis_tilt	pelvis_list	pelvis_rotation	pelvis_tx	pelvis_ty	pelvis_tz	hip_flexion_r	hip_adduction_r	hip_rotation_r	knee_angle_r	ankle_angle_r	subtalar_angle_r	mtp_angle_r	hip_flexion_l	hip_adduction_l	hip_rotation_l	knee_angle_l	ankle_angle_l	subtalar_angle_l	mtp_angle_l	lumbar_extension	lumbar_bending	lumbar_rotation
      0.91700000	      0.85452599	     -6.23073789	     -4.60200702	     -0.20801553	      0.99862364	      0.34129475	    -13.37417500	      8.18747812	     -5.11280929	     -9.57914421	      8.81756403	     -6.10453767	     -2.09529488	     22.17001079	     -7.57053650	     -9.20251006	     -3.16979545	      2.72047977	     -9.31073173	    -10.71019533	    -12.66178505	      6.96012471	      7.65011608
      0.92116667	      0.93132790	     -6.10011607	     -4.74961823	     -0.20202227	      0.99825375	      0.34176714	    -13.59429534	      7.93506782	     -5.06809750	    -10.03867064	      8.88432433	     -5.80119215	     -2.00125176	     21.99523335	     -7.45727221	     -9.12639159	     -3.55075064	      2.43931054	     -9.52561592	    -10.69442312	    -12.70740609	      6.65989211	      7.81995195
      0.92533333	      0.99176647	     -5.96990432	     -4.88774555	     -0.19602442	      0.99791475	      0.34221636	    -13.77762630	      7.68545276	     -5.01985326	    -10.52796906	      8.91223826	     -5.53801107	     -1.89620773	     21.84589274	     -7.34211487	     -9.02118560	     -3.96974338	      2.12336141	     -9.76377125	    -10.66940057	    -12.73431197	      6.36324595	      7.96617056
      0.92950000	      1.04389935	     -5.83273494	     -5.01387884	     -0.19001927	      0.99762188	      0.34261620	    -13.92943808	      7.42559197	     -4.98470872	    -11.05009727	      8.89382391	     -5.27428893	     -1.77900738	     21.71119946	     -7.21461280	     -8.90305687	     -4.41332114	      1.75543097	    -10.02084016	    -10.63535136	    -12.75337198	      6.07010729	      8.10375220
      0.93366667	      1.11605492	     -5.68793033	     -5.12501716	     -0.18402373	      0.99740928	      0.34295779	    -14.07516363	      7.15291075	     -4.97006225	    -11.61532741	      8.84546959	     -5.00511179	     -1.64043006	     21.55711240	     -7.06918661	     -8.76345029	     -4.86737062	      1.33623715	    -10.32502593	    -10.59014009	    -12.79686938	      5.76851608	      8.23239196
      0.93783333	      1.20217904	     -5.54157172	     -5.14438958	     -0.17800411	      0.99724701	      0.34303357	    -14.21483327	      6.88055011	     -5.09415616	    -12.19407865	      8.67012917	     -4.78331257	      3.38527185	     21.40234870	     -6.87148495	     -8.47906456	     -5.31943125	      0.84642068	    -10.79916656	     -8.61821261	    -12.84580850	      5.48916722	      8.26733440
      0.94200000	      1.22514121	     -5.38162879	     -5.26446350	     -0.17197755	      0.99709519	      0.34335222	    -14.24338368	      6.58539409	     -5.08540045	    -12.87115408	      8.55971914	     -4.51584800	      3.41495340	     21.30535528	     -6.72067482	     -8.38743228	     -5.80838252	      0.39849877	    -11.07594548	     -8.60282607	    -12.82686841	      5.17275734	      8.38269596
      0.94616667	      1.28538759	     -5.23329656	     -5.29979483	     -0.16597895	      0.99703117	      0.34343591	    -14.28795419	      6.30497035	     -5.17614449	    -13.57378564	      8.37401352	     -4.23199558	      3.50584326	     21.17949927	     -6.53500967	     -8.16079521	     -6.27950937	     -0.15527601	    -11.49065421	     -8.55759214	    -12.85386341	      4.89287235	      8.47076597
      0.95033333	      1.32645274	     -5.07400924	     -5.33473172	     -0.15996208	      0.99699924	      0.34349506	    -14.27607664	      6.01050146	     -5.27099849	    -14.33767467	      8.14478605	     -3.96581187	      3.64998775	     21.07516194	     -6.34080472	     -7.95809248	     -6.75987714	     -0.70294109	    -11.90838003	     -8.49558839	    -12.85584699	      4.60554567	      8.50723628
      0.95450000	      1.32395149	     -4.92117618	     -5.35085251	     -0.15394645	      0.99695455	      0.34348173	    -14.17954170	      5.72574711	     -5.38697962	    -15.16530670	      7.86579085	     -3.71356655	      3.85434545	     21.02813918	     -6.14913345	     -7.74152506	     -7.25715755	     -1.25400375	    -12.33762521	     -8.41694566	    -12.80616481	      4.33698847	      8.52202029
      0.95866667	      1.31683875	     -4.75239359	     -5.39677528	     -0.14791823	      0.99697845	      0.34355030	    -14.03879730	      5.42086599	     -5.45788551	    -16.06075782	      7.55408297	     -3.53535442	      4.02220373	     20.97772537	     -5.96150714	     -7.60860046	     -7.76017546	     -1.76283483	    -12.72144814	     -8.36165338	    -12.75089676	      4.03700982	      8.50906010
      0.96283333	      1.31803540	     -4.58619144	     -5.38394871	     -0.14189578	      0.99704975	      0.34343083	    -13.87040914	      5.11498147	     -5.61467458	    -17.01025896	      7.17347385	     -3.30671944	      4.24786242	     20.92491329	     -5.74680624	     -7.40331338	     -8.25303360	     -2.29687300	    -13.15612285	     -8.29507440	    -12.70509838	      3.76094229	      8.50182552
      0.96700000	      1.29654199	     -4.42833566	     -5.35153127	     -0.13588397	      0.99713234	      0.34325223	    -13.63747396	      4.81898329	     -5.78764192	    -18.02559795	      6.73571597	     -3.10487162	      4.52599237	     20.90332260	     -5.53714446	     -7.19136552	     -8.75906861	     -2.79783880	    -13.57510219	     -8.22201111	    -12.63843143	      3.50608231	      8.44911745
      0.97116667	      1.29364626	     -4.26109750	     -5.29764381	     -0.12987423	      0.99728305	      0.34300151	    -13.38354363	      4.50567498	     -5.99177001	    -19.10485235	      6.24881067	     -2.89199345	      4.87123491	     20.85967351	     -5.30942447	     -6.98623094	     -9.25995131	     -3.26401536	    -13.98342847	     -8.14303920	    -12.59110512	      3.24662589	      8.37721868
      0.97533333	      1.21894733	     -4.12856251	     -5.04416744	     -0.12384446	      0.99727605	      0.34222014	    -13.03193488	      4.24598036	     -6.44590105	    -20.21362363	      5.63628738	     -2.63188759	      6.08871916	     20.94932503	     -5.02884164	     -6.51100475	     -9.80863083	     -3.67505340	    -14.43610621	     -7.89670204	    -12.45575628	      3.10507270	      8.13197457
      0.97950000	      1.23718074	     -3.94367809	     -5.13592779	     -0.11782275	      0.99764138	      0.34236844	    -12.71448708	      3.89672060	     -6.43118639	    -21.41885781	      4.98959368	     -2.57828778	      6.24853112	     20.82704674	     -4.86799568	     -6.58679994	    -10.28471396	     -3.95904800	    -14.60587924	     -7.87330359	    -12.43785217	      2.77889621	      8.08378636
      0.98366667	      1.21095925	     -3.75004655	     -5.11557773	     -0.11186323	      0.99788733	      0.34213841	    -12.28580843	      3.52913586	     -6.60578602	    -22.74403128	      4.43870504	     -2.41391644	      6.61972864	     20.78086477	     -4.63579452	     -6.49335371	    -10.75950809	     -4.33357816	    -14.97802921	     -7.82627209	    -12.36962455	      2.49079712	      8.10337212
      0.98783333	      1.19329692	     -3.57065926	     -4.95164141	     -0.10584623	      0.99812557	      0.34154408	    -11.85999285	      3.17602633	     -6.95991892	    -24.04990738	      3.65257607	     -2.28507747	     13.80720572	     20.75203169	     -4.35510018	     -6.24083941	    -11.26565716	     -4.53323542	    -15.28053736	     -7.09891154	    -12.30373989	      2.26143481	      7.87634330
      0.99200000	      1.16847060	     -3.36347665	     -4.93933189	     -0.09985507	      0.99846062	      0.34136908	    -11.36399291	      2.79090760	     -7.08310350	    -25.46079451	      2.91777410	     -2.23933532	     13.82897849	     20.67448639	     -4.12516129	     -6.22092854	    -11.71116015	     -4.75004234	    -15.48526626	     -7.09988109	    -12.23281242	      1.95613802	      7.82130718
      0.99616667	      1.14005248	     -3.14258438	     -4.87201932	     -0.09389739	      0.99875827	      0.34101475	    -10.82138921	      2.37822883	     -7.28616535	    -26.93894886	      2.18008257	     -2.11207000	     13.87842207	     20.60916474	     -3.85280895	     -6.13925182	    -12.15963811	     -4.89281117	    -15.69980944	     -7.10579509	    -12.15903049	      1.64827032	      7.72365077
      1.00033333	      1.07626066	     -2.92887850	     -4.76234858	     -0.08799170	      0.99897771	      0.34050234	    -10.19937202	      1.96743123	     -7.52825992	    -28.47995872	      1.42843699	     -1.96246333	     13.98176224	     20.58831038	     -3.56322867	     -5.97838713	    -12.61450572	     -4.94496409	    -15.97442167	     -7.12628939	    -12.05053924	      1.38300609	      7.56525002
      1.00450000	      1.11459038	     -2.68520438	     -4.69285590	     -0.08201769	      0.99943047	      0.34019988	     -9.67437483	      1.52262137	     -7.69800665	    -30.00928333	      0.57598082	     -1.95334490	     14.01374816	     20.40927956	     -3.27403461	     -5.96280700	    -13.00477100	     -4.91880093	    -15.99498329	     -7.13397154	    -12.04839468	      1.05768630	      7.45274917
